<?xml version="1.0" standalone="no"?>
<!DOCTYPE svg PUBLIC "-//W3C//DTD SVG 20010904//EN"
 "http://www.w3.org/TR/2001/REC-SVG-20010904/DTD/svg10.dtd">
<svg version="1.0" xmlns="http://www.w3.org/2000/svg"
 width="512.000000pt" height="512.000000pt" viewBox="0 0 512.000000 512.000000"
 preserveAspectRatio="xMidYMid meet">
<metadata>
Created by potrace 1.14, written by Peter Selinger 2001-2017
</metadata>
<g transform="translate(0.000000,512.000000) scale(0.100000,-0.100000)"
fill="#000000" stroke="none">
<path d="M2455 4908 c-168 -12 -364 -72 -501 -154 -306 -183 -488 -464 -519
-799 -14 -152 27 -588 75 -805 47 -210 130 -442 184 -513 78 -103 312 -258
476 -315 251 -87 529 -89 763 -5 231 83 477 265 538 398 75 165 144 421 178
660 25 174 45 487 36 580 -38 413 -320 757 -733 895 -161 53 -311 71 -497 58z
m270 -213 c257 -42 480 -176 615 -371 280 -405 126 -924 -342 -1151 -380 -185
-850 -108 -1137 186 -138 141 -221 338 -221 528 -1 513 519 900 1085 808z"/>
<path d="M2495 4109 c-174 -16 -333 -128 -408 -286 -30 -64 -32 -75 -32 -179
0 -107 1 -112 37 -185 88 -177 261 -281 468 -281 207 0 380 104 468 281 36 73
37 78 37 185 0 104 -2 115 -32 179 -36 76 -124 175 -191 214 -103 61 -215 84
-347 72z m206 -231 c148 -68 206 -219 133 -348 -112 -198 -436 -198 -548 0
-80 141 0 310 173 365 67 22 174 14 242 -17z"/>
<path d="M543 3556 l-28 -24 -3 -952 c-2 -867 -1 -954 14 -986 9 -19 29 -41
43 -49 15 -7 320 -104 679 -214 l654 -201 196 0 196 0 -26 -27 c-45 -48 -87
-123 -99 -178 -11 -48 -15 -54 -43 -59 -17 -2 -274 -37 -571 -77 -311 -41
-554 -78 -573 -87 -58 -26 -64 -51 -60 -257 3 -205 7 -215 77 -235 56 -15
3086 -12 3131 3 19 7 44 27 57 46 22 32 23 44 23 203 0 189 -7 215 -62 240
-19 9 -263 46 -578 87 -300 40 -559 75 -576 78 -28 4 -32 10 -43 58 -12 55
-54 130 -99 178 l-26 27 197 0 196 0 668 206 c528 162 673 210 693 230 l25 24
0 971 0 971 -28 24 -28 24 -353 0 -354 0 -7 -77 c-3 -43 -9 -88 -12 -100 l-5
-23 141 0 141 0 -2 -631 -3 -631 -215 -78 c-118 -43 -353 -128 -522 -189
l-308 -111 -489 0 -490 0 -468 169 c-257 93 -494 179 -525 191 l-58 21 0 630
0 629 141 0 141 0 -5 23 c-3 12 -9 57 -12 100 l-7 77 -354 0 -353 0 -28 -24z"/>
</g>
</svg>
